<?xml version="1.0" encoding="utf-8"?>
<!-- Generator: Adobe Illustrator 22.1.0, SVG Export Plug-In . SVG Version: 6.00 Build 0)  -->
<svg version="1.1" id="Layer_1" xmlns="http://www.w3.org/2000/svg" xmlns:xlink="http://www.w3.org/1999/xlink" x="0px" y="0px"
	 viewBox="0 0 500 500" style="enable-background:new 0 0 500 500;" xml:space="preserve">
<style type="text/css">
	.st0{fill:#82E0FF;stroke:#EFEFEF;stroke-width:12;stroke-miterlimit:10;}
</style>
<path class="st0" d="M214.2,389.4C144.7,381.2,90.6,322,90.6,250.3c0-77.2,62.8-140.1,140.1-140.1c68.3,0,125.4,49.2,137.6,114
	l-55.6,0.3l86.9,103.2l82-105.8l-40.2,2.3c-5.7-46.8-26.7-90.2-60.6-124C340.7,60.1,287.4,38,230.7,38c-56.7,0-110,22.1-150.1,62.2
	c-40.1,40.1-62.2,93.4-62.2,150.1c0,56.7,22.1,110,62.2,150.1c36.2,36.2,83.1,57.7,133.6,61.5l-22.8-39.7L214.2,389.4z"/>
</svg>
