<?xml version="1.0" encoding="utf-8"?>
<!-- Generator: Adobe Illustrator 22.1.0, SVG Export Plug-In . SVG Version: 6.00 Build 0)  -->
<svg version="1.1" id="Layer_1" xmlns="http://www.w3.org/2000/svg" xmlns:xlink="http://www.w3.org/1999/xlink" x="0px" y="0px"
	 viewBox="0 0 288 288" style="enable-background:new 0 0 288 288;" xml:space="preserve">
<style type="text/css">
	.st0{fill:#37999B;}
	.st1{fill:#41CDD8;}
</style>
<polygon class="st0" points="101.9,267.6 144,195.1 85.1,195.1 "/>
<polygon class="st0" points="186.1,267.6 144,195.1 213,195.1 "/>
<path class="st1" d="M133.4,172.3H144v22.8H92.3l35.5-21.3C129.4,172.8,131.4,172.3,133.4,172.3z"/>
<path class="st1" d="M154.6,172.3H144v22.8h51.8l-35.5-21.3C158.6,172.8,156.6,172.3,154.6,172.3z"/>
<path class="st1" d="M101.9,267.6h-49c-6.6,0-12.2-4.9-13-11.5l-28.2-230c-0.4-3,2-5.6,5-5.6h50.5c2.5,0,4.7,1.9,5,4.4L101.9,267.6z
	"/>
<path class="st1" d="M186.3,267.6h49c6.6,0,12.2-4.9,13-11.5l28.2-230c0.4-3-2-5.6-5-5.6h-50.5c-2.5,0-4.7,1.9-5,4.4L186.3,267.6z"
	/>
</svg>
